<?xml version="1.0" encoding="utf-8"?>
<!-- Generator: Adobe Illustrator 25.4.1, SVG Export Plug-In . SVG Version: 6.00 Build 0)  -->
<svg version="1.1" id="Layer_1" xmlns="http://www.w3.org/2000/svg" xmlns:xlink="http://www.w3.org/1999/xlink" x="0px" y="0px"
	 viewBox="0 0 923.3 250" style="enable-background:new 0 0 923.3 250;" xml:space="preserve">
<style type="text/css">
	.st0{fill:#1C1D21;}
	.st1{fill:#353638;}
	.st2{fill:#28282C;}
	.st3{fill:#292A2F;}
	.st4{fill:#444547;}
	.st5{fill:#343539;}
	.st6{font-family:'FranklinGothicATF-Heavy';}
	.st7{font-size:100px;}
</style>
<g>
	<g>
		<path class="st0" d="M15,217c0-6.3,0-12.7,0-19.2c0.8,0,1.6,0,2.3,0c77.9,0,155.9,0,233.8,0c0.8,0,1.5,0.1,2.3,0.1
			c0,6.5,0,13,0,19.6c-27.2,0-54.5,0-81.7,0c-51.3,0-102.6,0-153.8,0c-0.9,0-1.7,0-2.6-0.1C15.3,217.3,15.1,217.1,15,217z"/>
		<path class="st0" d="M94.2,152.7c0-0.7-0.1-1.4-0.1-2.1c0-28.3,0-56.5,0-84.8c0-0.8,0-1.5,0-2.4c11.5,0,22.8,0,34.2,0
			c0.6,0.5,0.3,1.4,0.3,2.1c0,6.4,0,12.7,0,19.1c0,22,0,43.9,0,65.9c0,0.8,0,1.7,0,2.7c-0.7,0-1.2,0-1.8,0c-10.4,0-20.8,0-31.2,0
			c-0.4,0-0.8-0.1-1.2-0.1C94.5,153,94.4,152.9,94.2,152.7z"/>
		<path class="st0" d="M177.3,153.2c-11.5,0-22.9,0-34.2,0c-0.5-3.1-0.6-67-0.1-73c0.7,0,1.3,0,2,0c10,0,20,0,30,0
			c0.4,0,0.8,0,1.2,0c0.9,0,1.3,0.5,1.2,1.3c0,0.2,0,0.5,0,0.7c0,23.4,0,46.7,0,70.1C177.4,152.4,177.4,152.6,177.3,153.2z"/>
		<path class="st0" d="M45.8,103.5c11.5,0,22.8,0,34.1,0c0.4,1.8,0.6,44.1,0.2,49.6c-11.4,0-22.7,0-34.1,0
			C45.6,151.5,45.4,109,45.8,103.5z"/>
		<path class="st0" d="M191.5,153c0-16.4,0-32.8,0-49.3c2.2-0.5,32.7-0.4,34.4,0.1c0,16.3,0,32.7,0,49
			C224.2,153.4,194.5,153.5,191.5,153z"/>
		<path class="st0" d="M191.3,183.7c0-5.5,0-10.8,0-16.3c0.5-0.1,1-0.2,1.5-0.2c10.3,0,20.6,0,30.9,0c0.2,0,0.3,0,0.5,0
			c1.6,0.1,1.7,0.2,1.8,1.7c0,3.5,0,7,0,10.5c0,1.3,0,2.6,0,3.9C224.3,183.9,205.2,184.1,191.3,183.7z"/>
		<path class="st0" d="M142.7,183.6c0-5.2,0-10.3,0-15.3c0-0.3,0.2-0.6,0.3-1.1c0.7,0,1.3,0,2,0c9.9,0,19.8,0,29.8,0
			c0.3,0,0.6,0,0.9,0c1.5,0.1,1.6,0.2,1.7,1.6c0,0.6,0,1.2,0,1.9c0,3.8,0,7.6,0,11.4c0,1.6-0.1,1.7-1.7,1.7c-10.4,0-20.8,0-31.2,0
			C144,183.8,143.5,183.7,142.7,183.6z"/>
		<path class="st0" d="M79.9,183.7c-11.3,0-22.6,0-33.9,0c-0.5-1.6-0.6-10-0.3-16.1c1.8-0.5,24-0.6,34.1-0.3
			C80.3,168.9,80.4,181.1,79.9,183.7z"/>
		<path class="st0" d="M94.2,183.7c0-5.5,0-10.8,0-16.3c11.4,0,22.8,0,34.2,0c0.4,1.7,0.5,13.7,0.1,16.3
			C117.1,183.7,105.8,183.7,94.2,183.7z"/>
		<path class="st0" d="M177.1,49.9c0.1,0.2,0.3,0.5,0.3,0.7c0,4.9,0,9.8,0,14.7c0,0.2-0.1,0.4-0.2,0.8c-11.4,0-22.8,0-34.3,0
			c-0.6-1.7-0.2-3.5-0.3-5.2c-0.1-1.8,0-3.6,0-5.4c0-1.8,0-3.6,0-5.5c0.5-0.1,0.9-0.2,1.3-0.2c10.6,0,21.3,0,31.9,0
			c0.2,0,0.5,0,0.7,0.1C176.8,49.9,176.9,49.9,177.1,49.9z"/>
		<path class="st0" d="M191.5,89.3c0-5.3,0-10.6,0-16.1c0.7,0,1.4-0.1,2.1-0.1c9.9,0,19.9,0,29.8,0c0.3,0,0.6,0,0.9,0
			c1.4,0.1,1.6,0.2,1.6,1.6c0,4.8,0,9.6,0,14.4C224.2,89.6,194.5,89.7,191.5,89.3z"/>
		<path class="st0" d="M80.1,73.5c0,5.2,0,10.5,0,15.9c-11.4,0-22.8,0-34.2,0c0,0,0-0.1-0.1-0.1c0-0.1-0.1-0.1-0.1-0.2
			c0-5.2,0-10.4,0-15.6c0.1-0.1,0.3-0.2,0.4-0.4c8.7,0,17.4-0.1,26.1-0.1c2.5,0,5,0,7.4,0.1C79.8,73.3,80,73.4,80.1,73.5z"/>
		<path class="st0" d="M128.6,33.5c0,5.2,0,10.4,0,15.7c-0.3,0.1-0.6,0.2-1,0.2c-10.8,0-21.6,0-32.3,0c-0.2,0-0.5-0.1-0.7-0.1
			c-0.1-0.2-0.2-0.3-0.4-0.5c0-5.1,0-10.2,0-15.4c0.1-0.1,0.2-0.2,0.4-0.4c2.6,0,5.2-0.1,7.9-0.1c8.6,0,17.1,0,25.7,0.1
			C128.3,33.2,128.5,33.3,128.6,33.5z"/>
		<path class="st1" d="M94.6,33.1c-0.1,0.1-0.2,0.2-0.4,0.4C94.4,33.3,94.5,33.2,94.6,33.1z"/>
		<path class="st2" d="M128.6,33.5c-0.2-0.1-0.3-0.3-0.5-0.4C128.3,33.2,128.5,33.3,128.6,33.5z"/>
		<path class="st1" d="M94.2,48.8c0.1,0.2,0.2,0.3,0.4,0.5C94.5,49.1,94.4,49,94.2,48.8z"/>
		<path class="st3" d="M177.1,49.9c-0.2,0-0.3-0.1-0.5-0.1C176.8,49.9,176.9,49.9,177.1,49.9z"/>
		<path class="st4" d="M46.2,73.2c-0.1,0.1-0.3,0.2-0.4,0.4C45.9,73.4,46,73.3,46.2,73.2z"/>
		<path class="st4" d="M80.1,73.5c-0.1-0.1-0.3-0.2-0.4-0.4C79.8,73.3,80,73.4,80.1,73.5z"/>
		<path class="st5" d="M94.2,152.7c0.1,0.2,0.2,0.3,0.4,0.5C94.5,153,94.4,152.9,94.2,152.7z"/>
		<path class="st2" d="M15,217c0.1,0.1,0.3,0.3,0.4,0.4C15.3,217.3,15.1,217.1,15,217z"/>
	</g>
</g>
<text transform="matrix(1 0 0 1 270 155.25)" class="st6 st7">home library</text>
</svg>
